<svg xmlns="http://www.w3.org/2000/svg" width="100" height="100" viewBox="0 0 92 82" fill="none">
  <path d="M15.2874 51.716L9.39941 42.4865L11.0129 36.1398L24.6316 27.1396L43.4424 24.8303L64.792 27.5984L75.0691 31.6359C75.0691 31.6359 82.7999 38.3267 82.9146 39.7108C83.0293 41.0948 80.8347 48.3668 80.72 48.7109C80.6053 49.055 79.1065 56.5564 74.6027 58.1698C70.0988 59.7833 41.1408 63.9431 40.6743 63.706C40.2079 63.469 15.2874 51.716 15.2874 51.716Z" fill="#2F2F2F"/>
  <path d="M12.1748 48.8336C12.1748 48.8336 12.3507 46.876 13.0159 44.9261C13.903 42.311 22.1002 30.948 45.0632 30.948C68.0262 30.948 80.7196 42.2574 79.4503 47.9083C78.1809 53.5592 62.3753 67.7591 62.3753 67.7591C62.3753 67.7591 34.679 63.4923 34.2202 63.3776C33.7537 63.2552 12.1748 48.8336 12.1748 48.8336Z" fill="#F7B03A"/>
  <path d="M22.8577 42.104C22.1848 42.2493 21.596 42.6851 21.6572 43.4651C21.7107 44.2451 22.4295 44.6121 23.0718 44.5051C24.0736 44.3368 24.433 43.6257 24.303 42.9298C24.173 42.2952 23.4695 41.9664 22.8577 42.104Z" fill="#FFE36A"/>
  <path d="M22.2154 45.7367C22.8883 46.7996 21.8713 48.2754 19.8372 48.9177C17.8032 49.5601 16.3886 49.2389 16.1515 47.8472C15.9145 46.4555 17.7268 45.5761 18.6597 45.255C19.5925 44.9338 21.5195 44.6432 22.2154 45.7367Z" fill="#FFE36A"/>
  <path d="M33.112 38.044C33.1579 39.0763 34.6337 39.6498 36.7212 39.3821C38.8088 39.1145 39.9252 37.9675 39.8181 36.9276C39.7111 35.8876 38.2429 35.4823 36.5606 35.5894C34.8784 35.6964 33.0585 36.7364 33.112 38.044Z" fill="#FFE36A"/>
  <path d="M40.2764 35.3445C40.2764 36.2698 41.3698 36.5757 42.7845 36.4915C44.4667 36.3998 44.9255 35.7422 45.002 35.1304C45.0785 34.5187 44.0691 33.5552 42.6468 33.6623C41.2398 33.7693 40.2764 34.3275 40.2764 35.3445Z" fill="#FFE36A"/>
  <path d="M54.3007 44.0004C54.1936 45.1704 54.9965 46.455 58.147 46.195C61.2974 45.9351 61.9168 44.3522 61.9168 43.794C61.9168 43.2358 61.3968 41.5382 58.3917 41.4923C56.5794 41.4617 54.4613 42.2341 54.3007 44.0004Z" fill="#FFE36A"/>
  <path d="M68.9745 43.3355C68.9133 43.9319 69.1045 45.4766 71.9414 45.3924C74.7707 45.316 74.4266 44.3525 74.4266 43.9243C74.4266 43.4961 73.4631 41.9208 71.4597 41.7067C69.8615 41.5309 69.0815 42.3414 68.9745 43.3355Z" fill="#FFE36A"/>
  <path d="M72.6069 47.4722C72.5534 48.191 73.3792 48.7569 75.1456 48.6498C76.6444 48.558 77.2944 47.7704 77.2561 47.1816C77.2026 46.3252 76.3767 45.897 75.0921 45.9505C73.968 45.9964 72.691 46.4628 72.6069 47.4722Z" fill="#FFE36A"/>
  <path d="M40.1692 54.6374C40.1998 55.2491 41.5074 55.9756 43.6179 55.9756C45.7284 55.9756 46.126 55.0962 46.126 54.4539C46.126 53.8116 45.4607 53.0928 43.5108 53.0086C41.7674 52.9322 40.1157 53.5974 40.1692 54.6374Z" fill="#FFE36A"/>
  <path d="M18.2617 52.5267C18.3382 52.3432 18.4299 51.5403 18.8199 50.8674C19.164 50.2786 19.7758 49.7969 20.4793 49.7969C21.7104 49.7969 24.4861 50.2786 25.1284 51.158C25.5949 51.8003 25.5567 54.1784 23.6832 54.7902C21.8098 55.4095 18.2617 52.5267 18.2617 52.5267Z" fill="#D64C12"/>
  <path d="M23.9743 40.2308C24.0125 40.7202 24.8001 41.6989 25.8477 41.6225C26.8877 41.546 29.9081 40.1543 30.2063 39.5349C30.4969 38.9232 29.2734 37.5315 28.4705 37.5315C27.6676 37.5315 23.8978 39.2214 23.9743 40.2308Z" fill="#D64C12"/>
  <path d="M54.7589 48.4664C54.4454 49.101 54.1166 50.9745 55.4777 51.4868C56.8388 51.9915 62.1074 52.2362 62.1074 50.7145C62.1074 49.1928 60.6086 48.0993 60.0504 48.0152C59.4846 47.9311 55.2407 47.5029 54.7589 48.4664Z" fill="#D64C12"/>
  <path d="M60.9307 45.9812C60.0666 47.3194 61.6418 48.9099 62.8041 49.4528C65.3122 50.6304 66.5739 50.4316 67.4533 49.7739C68.952 48.6499 68.4397 47.5258 65.2358 46.0347C62.9494 44.9642 61.5195 45.0712 60.9307 45.9812Z" fill="#D64C12"/>
  <path d="M46.8302 38.0058C46.8073 39.4204 49.973 40.8504 52.2517 40.9192C54.5304 40.988 55.1269 39.9175 55.2951 39.4128C55.4633 38.9081 54.6604 37.1723 53.7581 36.4306C52.8558 35.6889 50.5465 34.9242 49.5065 35.0618C48.4666 35.1918 46.8608 36.2012 46.8302 38.0058Z" fill="#7F594B"/>
  <path d="M28.2175 45.4383C28.3704 46.3941 29.8309 47.0441 32.4002 47.2123C35.5124 47.4111 37.4853 46.0041 37.5541 45.4077C37.6229 44.8036 35.8106 43.2666 32.6373 43.2666C28.7833 43.259 28.0875 44.5972 28.2175 45.4383Z" fill="#FE8D00"/>
  <path d="M27.1166 51.1271C27.0172 52.8323 28.2177 53.5358 29.8923 53.467C31.567 53.3982 34.7097 51.8306 35.3444 50.0183C35.742 48.8943 33.8686 46.9061 31.1234 47.0055C29.5406 47.0667 27.2007 49.636 27.1166 51.1271Z" fill="#7F594B"/>
  <path d="M56.5718 41.0488C57.2447 41.4159 59.7528 40.7124 61.7257 40.3148C63.6985 39.9171 65.7096 39.7107 66.0078 39.076C66.306 38.4413 65.7708 35.765 62.8268 35.5279C59.8828 35.2909 58.2082 36.3997 57.5047 37.1643C56.8012 37.9366 56.3347 38.8695 56.2965 39.1372C56.2659 39.4125 56.1053 40.7965 56.5718 41.0488Z" fill="#FE8D00"/>
  <path d="M68.5542 46.0728C69.5101 45.9046 68.8907 43.0295 68.1184 42.1577C67.3461 41.286 65.1744 40.8884 63.798 41.0566C62.4292 41.2248 61.4887 41.5919 61.4199 42.3642C61.3511 43.1365 63.798 44.4365 65.0673 45.01C66.3443 45.5682 67.9807 46.1722 68.5542 46.0728Z" fill="#FE8D00"/>
  <path d="M35.6883 48.2372C36.4759 48.5125 38.3111 47.9772 38.334 46.8149C38.357 45.6526 37.3094 44.5668 36.2771 44.8038C35.7571 44.9185 34.6713 46.272 34.6942 46.792C34.7171 47.3196 35.283 48.0995 35.6883 48.2372Z" fill="#92A51E"/>
  <path d="M39.5421 41.263C39.6109 42.1883 41.6679 43.1518 42.379 42.54C43.0519 41.9589 42.6619 39.489 41.7902 39.489C40.7044 39.489 39.5115 40.8807 39.5421 41.263Z" fill="#92A51E"/>
  <path d="M41.4852 45.7058C41.5005 46.0346 41.9822 47.5486 43.1675 47.5257C44.3527 47.5028 45.9585 46.2946 45.9585 45.6828C45.9585 45.0711 44.0927 43.1059 43.2133 43.1289C42.6169 43.1442 41.4623 45.0711 41.4852 45.7058Z" fill="#92A51E"/>
  <path d="M45.3844 41.3318C45.2468 42.15 45.8585 42.2341 46.4014 42.3259C46.9443 42.4177 47.6325 42.5859 48.3437 43.5111C49.0548 44.4364 49.7506 46.3557 49.8348 46.5622C50.0947 47.2274 51.28 47.5792 52.1288 46.7533C52.9775 45.9275 51.3029 42.2877 49.8118 41.1254C48.3131 39.9631 45.6444 39.8178 45.3844 41.3318Z" fill="#FBE0BC"/>
  <path d="M45.0025 43.2742C45.1172 44.0312 46.8454 45.4229 48.0536 44.8112C49.2617 44.1994 47.9618 41.9437 47.4342 41.699C47.1054 41.5384 44.8343 42.1731 45.0025 43.2742Z" fill="#92A51E"/>
  <path d="M52.0291 41.4085C51.4862 41.3856 51.035 41.5767 51.058 42.4943C51.0809 43.4196 51.4327 44.4595 52.6408 44.5284C53.849 44.5972 53.9637 43.0143 53.9637 42.8231C53.9637 42.632 53.2296 41.4544 52.0291 41.4085Z" fill="#92A51E"/>
  <path d="M52.3815 46.4169C51.9303 46.3098 49.7587 47.2427 49.7128 48.1221C49.6669 48.9938 50.4698 49.6591 51.8386 49.8273C53.2073 49.9955 54.1326 49.9955 54.3238 49.3303C54.5073 48.665 53.7273 46.7457 52.3815 46.4169Z" fill="#92A51E"/>
  <path d="M62.2374 54.3771C62.3215 54.8894 64.1261 55.6923 64.7073 55.5318C65.2808 55.3712 66.6954 52.4196 68.8136 51.8155C70.9317 51.2037 71.6352 51.4637 71.9258 51.1426C72.2163 50.8214 71.7958 49.3456 71.0923 49.0932C70.3888 48.8409 68.4924 48.4815 66.1219 49.8656C63.6903 51.2726 62.138 53.8036 62.2374 54.3771Z" fill="#FBE0AF"/>
  <path d="M39.6416 47.0977C38.6016 47.1588 37.2023 48.7035 36.5982 50.1105C35.6729 52.2439 35.3824 54.0179 35.6347 54.4691C35.8947 54.9202 37.7375 55.5472 38.4869 55.0426C38.6781 54.9126 38.8692 52.5421 39.8021 50.7451C40.4368 49.5293 41.4997 49.0476 41.6909 48.8564C41.882 48.6652 41.3391 47.0059 39.6416 47.0977Z" fill="#FBE0AF"/>
  <path d="M30.6951 36.2699C30.4122 36.5376 29.6399 37.7763 29.8922 39.9556C30.091 41.615 30.3204 42.6243 30.8557 42.869C31.2686 43.0602 34.2202 43.3508 34.4802 42.5785C34.7402 41.8061 32.9126 39.6651 32.7138 39.2751C32.515 38.8851 32.4232 36.6446 32.3927 36.3617C32.3621 36.0711 31.1463 35.8494 30.6951 36.2699Z" fill="#FBE0AF"/>
  <path d="M90.8747 36.0253C89.4906 33.2572 87.9919 32.2172 86.7225 32.2172C85.4532 32.2172 81.0716 34.2971 81.0716 34.2971C81.0716 34.2971 71.2456 23.7447 46.3251 23.3853C22.2075 23.0336 11.9533 33.0125 11.9533 33.0125C11.9533 33.0125 8.48169 30.3667 5.13244 30.7108C1.79085 31.0626 -1.09195 39.8333 0.406797 42.372C1.90555 44.9107 4.10014 44.796 5.82829 45.7213C7.55644 46.6465 9.17754 47.6865 9.52164 48.26C9.86574 48.8335 10.9057 61.6493 14.1402 67.4149C17.3748 73.1881 23.4845 80.9189 45.874 81.3777C68.2634 81.8365 74.3043 72.7981 77.0265 67.6443C80.2611 61.5269 81.7598 50.2175 81.7598 50.2175C81.7598 50.2175 84.0691 48.1376 86.6078 47.1053C89.4141 45.9583 90.6453 45.7213 91.4558 44.5666C92.2587 43.4043 92.2587 38.7934 90.8747 36.0253ZM46.6769 57.6042C22.5592 57.3672 10.898 49.7511 11.2498 41.1027C11.4792 35.4518 22.7886 26.0999 44.9487 26.3293C67.3458 26.5663 81.301 34.6412 81.1863 42.135C81.064 49.6364 70.3357 57.8336 46.6769 57.6042Z" fill="#6A6E70"/>
  <path opacity="0.6" d="M45.7892 36.5145C48.2284 36.2545 47.1197 32.1483 49.1231 28.1873C53.7035 19.1107 62.7036 18.1931 62.4513 10.447C62.176 1.97445 49.039 -2.13946 45.0398 1.11038C43.7551 2.15797 51.1189 3.3585 49.9566 8.1912C48.7867 13.0239 39.8783 13.3527 37.7143 21.0988C35.1373 30.2901 44.2063 36.6751 45.7892 36.5145Z" fill="#EAEAEA"/>
</svg>