<svg xmlns="http://www.w3.org/2000/svg" width="30" height="30" viewBox="0 0 71 71" fill="none">
  <path d="M48.5073 48.1469C47.52 47.0819 46.2276 45.6952 45.096 44.497C42.8994 42.184 40.2147 40.4534 40.2147 40.4534L35.7495 45.2459C35.7495 45.2459 37.4857 48.4409 39.6989 50.3434C40.7805 51.2753 42.134 52.2238 43.2378 52.956C43.0714 53.5052 42.905 54.2207 42.8329 55.0749C42.6221 57.7263 43.0326 61.2209 43.0492 61.6091C43.1158 63.6393 43.1379 65.1425 43.1379 65.1425L46.6547 65.1314L49.5834 52.1406C49.9051 50.7151 49.5058 49.2174 48.5073 48.1469Z" fill="url(#paint0_linear_368_691)"/>
  <path d="M30.7797 40.4534C30.7797 40.4534 28.095 42.184 25.904 44.5026C24.7724 45.7007 23.48 47.0874 22.4926 48.1524C22.0017 48.6803 21.6471 49.32 21.4596 50.0159C21.2721 50.7119 21.2573 51.4432 21.4165 52.1462L24.3453 65.137L27.862 65.1481C27.862 65.1481 27.8842 63.6449 27.9507 61.6147C27.9618 61.2264 28.3779 57.7319 28.1671 55.0805C28.1005 54.2263 27.9286 53.5107 27.7622 52.9616C28.866 52.2294 30.2194 51.2809 31.3011 50.349C33.5143 48.4464 35.2504 45.2514 35.2504 45.2514L30.7797 40.4534Z" fill="url(#paint1_linear_368_691)"/>
  <path d="M23.4575 61.6091L24.3506 65.1314L27.8673 65.1425L27.9449 61.6091H23.4575Z" fill="#E0E0E0"/>
  <path d="M29.0768 66.5291C29.0712 65.4641 28.156 64.2549 28.156 64.2549H23.8571L20.5401 65.4253C20.1221 65.5895 19.7631 65.8757 19.5099 66.2467C19.2566 66.6177 19.1208 67.0562 19.1201 67.5054V68.2154C19.1201 68.526 19.3697 68.7811 19.6804 68.7811L28.4389 68.7534C28.7939 68.7534 29.0823 68.465 29.0823 68.1044L29.0768 66.5291Z" fill="#4568AD"/>
  <path d="M43.0493 61.6091L43.1436 65.1425L46.6548 65.1314L47.5423 61.6091H43.0493Z" fill="#E0E0E0"/>
  <path d="M50.46 65.4253L47.1485 64.2549H42.8497C42.8497 64.2549 41.9289 65.4641 41.9289 66.5346L41.9233 68.11C41.9233 68.465 42.2118 68.7534 42.5668 68.7589L51.3197 68.7811C51.6304 68.7811 51.88 68.5315 51.88 68.2154V67.5054C51.88 66.5846 51.3142 65.7636 50.46 65.4253Z" fill="#4568AD"/>
  <path d="M53.3942 12.8244L50.8759 11.5542C48.8624 13.5289 47.9083 15.2207 47.0097 18.1661C45.1072 19.0702 43.4653 20.7287 42.4003 22.4427C41.2687 24.0014 40.5587 24.8667 39.7433 26.4143C39.1276 27.5902 39.5714 28.8993 40.6863 29.7147C41.2133 30.1029 41.6404 30.2694 42.0564 30.2694C42.5223 30.2694 42.9661 30.053 43.5097 29.6869C44.6579 29.0324 46.2165 27.3018 47.215 26.0149L47.1872 25.9983C48.4575 24.4174 49.7388 22.1876 50.3767 20.0797C52.1628 18.216 53.3942 15.7698 53.3942 12.8244Z" fill="url(#paint2_linear_368_691)"/>
  <path d="M31.2568 26.4198C30.4414 24.8722 29.7314 24.0069 28.5999 22.4483C27.5349 20.7343 25.893 19.0758 23.9904 18.1716C23.0863 15.2151 22.1322 13.5289 20.1187 11.5542L17.606 12.83C17.606 15.7754 18.8374 18.216 20.6235 20.0853C21.2613 22.1876 22.5371 24.4229 23.8129 26.0038L23.7852 26.0204C24.7836 27.3073 26.3423 29.0379 27.4905 29.6925C28.0341 30.0586 28.4778 30.2749 28.9438 30.2749C29.3598 30.2749 29.7869 30.1029 30.3138 29.7202C31.4232 28.9048 31.8725 27.5902 31.2568 26.4198Z" fill="url(#paint3_linear_368_691)"/>
  <path d="M42.4005 22.4426C41.4076 23.8071 40.742 24.6447 40.043 25.8705C39.3608 25.693 38.5898 25.5932 37.7355 25.5932H33.2037C32.3662 25.5932 31.6173 25.693 30.9517 25.865C30.2528 24.6391 29.5872 23.8015 28.5943 22.437L23.7852 26.0147C24.7836 27.3016 26.9358 29.6868 26.9358 29.6868C27.3962 31.9388 30.0476 40.8915 30.0476 40.8915H41.2911L44.1588 29.6424C44.1588 29.6424 46.2389 27.2683 47.2152 26.0203L42.4005 22.4426Z" fill="url(#paint4_linear_368_691)"/>
  <path d="M33.5752 25.9815C33.5752 26.9023 34.3573 27.6511 35.3225 27.6511H35.6719C36.6371 27.6511 37.4192 26.9023 37.4192 25.9815V23.9458H33.5752V25.9815Z" fill="#7A4C32"/>
  <path d="M30.8074 21.411C29.9476 21.411 29.2432 20.6566 29.2432 19.7303C29.2432 18.8039 29.9421 18.0496 30.8074 18.0496H40.1927C41.0525 18.0496 41.7569 18.8039 41.7569 19.7303C41.7569 20.6566 41.058 21.411 40.1927 21.411H30.8074Z" fill="#7A4C32"/>
  <path d="M35.4998 11.0659C32.5266 11.0659 29.7754 14.2443 29.7754 18.8149C29.7754 23.3633 32.6098 25.6098 35.4998 25.6098C38.3897 25.6098 41.2241 23.3633 41.2241 18.8149C41.2241 14.2443 38.4729 11.0659 35.4998 11.0659Z" fill="#A56C43"/>
  <path d="M36.1603 20.7952L36.1048 20.7786H34.89C34.8734 20.7786 34.8512 20.7841 34.8346 20.7952C34.7236 20.8396 34.6626 20.9561 34.7181 21.0781C34.768 21.2001 35.0121 21.5385 35.5002 21.5385C35.9883 21.5385 36.2268 21.2001 36.2823 21.0781C36.2939 21.0516 36.2999 21.0231 36.3 20.9942C36.3 20.9653 36.2942 20.9367 36.2827 20.9101C36.2713 20.8836 36.2545 20.8597 36.2334 20.84C36.2124 20.8202 36.1875 20.805 36.1603 20.7952Z" fill="#875334"/>
  <path d="M36.942 22.1709C36.3928 22.4982 34.6012 22.4982 34.0576 22.1709C33.7414 21.9824 33.4197 22.2708 33.5528 22.5537C33.6804 22.8366 34.6622 23.4856 35.5053 23.4856C36.3485 23.4856 37.3192 22.8366 37.4467 22.5537C37.5743 22.2708 37.2581 21.9824 36.942 22.1709Z" fill="#473530"/>
  <path d="M32.7153 20.0685C33.1749 20.0685 33.5474 19.6811 33.5474 19.2032C33.5474 18.7253 33.1749 18.3379 32.7153 18.3379C32.2558 18.3379 31.8833 18.7253 31.8833 19.2032C31.8833 19.6811 32.2558 20.0685 32.7153 20.0685Z" fill="#42312C"/>
  <path d="M38.2844 20.0685C38.7439 20.0685 39.1165 19.6811 39.1165 19.2032C39.1165 18.7253 38.7439 18.3379 38.2844 18.3379C37.8249 18.3379 37.4524 18.7253 37.4524 19.2032C37.4524 19.6811 37.8249 20.0685 38.2844 20.0685Z" fill="#42312C"/>
  <path d="M31.4564 17.7333C31.9945 16.9734 33.2536 16.9457 33.886 17.5946C33.9969 17.7056 34.1134 17.8553 34.0302 18.0162C33.9359 18.1992 33.7528 18.166 33.5975 18.1049C33.1871 17.9385 32.7655 17.8664 32.3273 17.9552C32.1387 17.994 31.9723 18.0717 31.7948 18.1382C31.5452 18.2214 31.3011 17.9663 31.4564 17.7333Z" fill="#42312C"/>
  <path d="M39.2221 18.1383C38.8449 17.9774 38.4677 17.8776 38.0517 17.9275C37.8631 17.9497 37.68 17.9996 37.5025 18.0661C37.3639 18.1216 37.2141 18.2104 37.0699 18.1105C36.6594 17.8276 37.3916 17.3617 37.6024 17.2674C38.0683 17.0677 38.623 17.0843 39.0723 17.3173C39.2498 17.4116 39.4439 17.5447 39.5493 17.7222C39.6824 17.9497 39.4828 18.2436 39.2221 18.1383Z" fill="#42312C"/>
  <path d="M35.5002 10.0066H35.4947C27.8234 10.0454 29.3931 18.8095 29.3931 18.8095C29.3931 18.8095 29.737 19.7136 29.8923 20.113C29.9145 20.1685 29.9977 20.1629 30.0144 20.1019C30.1808 19.3697 30.7688 16.7682 31.0683 15.9806C31.1538 15.7554 31.3154 15.5672 31.5251 15.4487C31.7349 15.3301 31.9794 15.2887 32.2165 15.3316C32.9709 15.4703 34.1634 15.6367 35.4891 15.6367H35.5224C36.8426 15.6367 38.0407 15.4703 38.7951 15.3316C39.2832 15.2428 39.7658 15.5146 39.9433 15.9806C40.2373 16.7682 40.8252 19.3531 40.9916 20.0964C41.0027 20.1574 41.0915 20.1629 41.1137 20.1075L41.6184 18.815C41.6018 18.815 43.1771 10.051 35.5002 10.0066Z" fill="#3C2C23"/>
  <path d="M41.6015 18.8151C41.6015 18.8151 43.1713 10.051 35.5 10.0122H35.4944H35.4889C35.3669 10.0122 35.2504 10.0178 35.1394 10.0178C34.912 10.0288 34.6901 10.0455 34.4794 10.0677H34.4738C34.4572 10.0677 34.4461 10.0732 34.4294 10.0732C27.9673 10.8886 29.3929 18.8096 29.3929 18.8096L29.8976 20.1075C29.9198 20.163 30.003 20.1574 30.0141 20.102C30.1805 19.3642 30.7685 16.7738 31.0625 15.9862C31.148 15.761 31.3096 15.5728 31.5193 15.4543C31.7291 15.3357 31.9736 15.2943 32.2107 15.3372C32.9651 15.4759 34.1576 15.6423 35.4833 15.6423H35.5166C36.8368 15.6423 38.0349 15.4759 38.7893 15.3372C39.2774 15.2485 39.76 15.5203 39.9375 15.9862C40.237 16.7738 40.825 19.3809 40.9858 20.1075C40.9969 20.1685 41.0801 20.1741 41.1023 20.1186C41.2576 19.7192 41.6015 18.8151 41.6015 18.8151Z" fill="url(#paint5_radial_368_691)"/>
  <path d="M22.3318 9.51841C21.8326 9.22442 19.4641 8.85278 17.8278 8.85278C16.9292 8.85278 16.258 8.96927 16.258 9.27435L16.2525 11.1769C16.2469 13.0906 17.495 14.6548 19.5584 14.6604H19.5639C23.3025 14.6604 23.5965 10.2561 22.3318 9.51841Z" fill="url(#paint6_radial_368_691)"/>
  <path d="M22.1988 11.5486C22.1766 11.6207 21.9825 11.6928 21.7717 11.7483H21.7661C21.5221 11.8093 21.2336 11.9313 20.6956 12.0811C19.9468 12.2919 19.8857 13.2958 19.8857 13.2958C19.7471 12.7744 20.1021 11.8592 20.5958 11.6484V11.6429C20.8287 11.5319 21.0894 11.4709 21.3668 11.4265C21.4111 11.421 21.5221 11.4155 21.6608 11.421H21.6663C21.9159 11.4265 22.2265 11.4598 22.1988 11.5486Z" fill="#875334"/>
  <path d="M68.7812 10.2617C68.7812 11.0272 68.3763 11.6484 67.8716 11.6484H3.12844C2.62922 11.6484 2.21875 11.0272 2.21875 10.2617C2.21875 9.49625 2.62922 8.875 3.12844 8.875H67.866C68.3708 8.875 68.7812 9.49625 68.7812 10.2617Z" fill="url(#paint7_linear_368_691)"/>
  <path d="M11.604 18.2991C13.44 18.2991 14.9321 16.807 14.9321 14.971V5.62451C14.9321 3.7885 13.44 2.29639 11.604 2.29639C9.76799 2.29639 8.27588 3.7885 8.27588 5.62451V14.971C8.27588 16.807 9.76244 18.2991 11.604 18.2991Z" fill="url(#paint8_radial_368_691)"/>
  <path d="M59.396 18.2991C57.56 18.2991 56.0679 16.807 56.0679 14.971V5.62451C56.0679 3.7885 57.56 2.29639 59.396 2.29639C61.232 2.29639 62.7241 3.7885 62.7241 5.62451V14.971C62.7241 16.807 61.2376 18.2991 59.396 18.2991Z" fill="url(#paint9_radial_368_691)"/>
  <path d="M5.54688 15.0985C6.77273 15.0985 7.76562 14.1056 7.76562 12.8797V7.71558C7.76562 6.48972 6.77273 5.49683 5.54688 5.49683C4.32102 5.49683 3.32812 6.48972 3.32812 7.71558V12.8797C3.32812 14.1056 4.32102 15.0985 5.54688 15.0985Z" fill="url(#paint10_radial_368_691)"/>
  <path d="M65.4531 15.0985C64.2273 15.0985 63.2344 14.1056 63.2344 12.8797V7.71558C63.2344 6.48972 64.2273 5.49683 65.4531 5.49683C66.679 5.49683 67.6719 6.48972 67.6719 7.71558V12.8797C67.6719 14.1056 66.679 15.0985 65.4531 15.0985Z" fill="url(#paint11_radial_368_691)"/>
  <path d="M21.4163 11.6484H16.2411L15.7974 8.875H21.4163V11.6484Z" fill="#646464"/>
  <path d="M22.8642 8.3425L22.7033 9.20227L22.67 9.39086L22.5924 9.80688L22.548 10.0509C22.4968 10.321 22.341 10.5599 22.1146 10.7157C21.8881 10.8715 21.6093 10.9316 21.3388 10.883C21.0836 10.8386 20.8673 10.7055 20.7175 10.5058C20.5345 10.6722 20.296 10.7665 20.0353 10.7665C19.8799 10.7665 19.3918 10.5502 19.3086 10.467C19.2854 10.4455 19.2649 10.4213 19.2476 10.3948C19.2254 10.4115 19.2032 10.4337 19.181 10.4503C19.1699 10.4559 18.8538 10.6445 18.5321 10.6389C18.2325 10.6334 17.933 10.4503 17.8442 10.3616C17.7555 10.4891 17.6335 10.6001 17.4892 10.6777C17.3894 10.7388 17.2785 10.7776 17.1564 10.7942C17.101 10.8053 17.0455 10.8109 16.99 10.8109C16.7681 10.8109 16.5518 10.7388 16.3743 10.6056C16.1414 10.4392 15.9916 10.1952 15.9528 9.91781L15.8806 9.44633V9.44078L15.7864 8.83617C15.742 8.55883 15.8085 8.28148 15.9749 8.05406C16.1414 7.82109 16.3854 7.67133 16.6628 7.6325C16.7293 7.62141 16.7959 7.61586 16.8624 7.62141C16.8791 7.62141 16.9013 7.62141 16.9179 7.62695C17.0954 7.63805 17.2729 7.69906 17.4282 7.81C17.4504 7.82664 17.4671 7.84328 17.4837 7.85438C17.517 7.7268 17.5835 7.60477 17.6667 7.50492C17.6889 7.47164 17.7111 7.44391 17.7389 7.41617C17.7721 7.37734 17.7999 7.3607 17.811 7.34961C17.8165 7.34961 17.8165 7.34406 17.8165 7.34406C17.9829 7.19984 18.1992 7.11109 18.4378 7.1C18.5154 7.09445 18.5931 7.1 18.6652 7.11109C18.7206 7.12219 18.7706 7.13883 18.8205 7.15547C18.9647 7.19984 19.0923 7.27195 19.2032 7.3718C19.2365 7.32742 19.2753 7.28305 19.3142 7.24422C19.3696 7.18875 19.4306 7.13883 19.4917 7.1C19.5249 7.07781 19.5638 7.06117 19.5971 7.03898C19.7357 6.97242 19.891 6.93914 20.0519 6.94469C20.2294 6.94469 20.4014 6.98906 20.5567 7.07781C20.5844 7.08891 20.6066 7.10555 20.6288 7.12219C20.6842 7.16102 20.7342 7.20539 20.7841 7.25531C20.8728 7.34406 20.9449 7.44945 20.9949 7.56039C21.0614 7.46055 21.1502 7.36625 21.2556 7.29414C21.2778 7.2775 21.3055 7.26086 21.3332 7.24977C21.4442 7.18875 21.5606 7.14438 21.6827 7.12773C21.7992 7.11109 21.9156 7.11109 22.0321 7.13328C22.3095 7.1832 22.5424 7.33852 22.7033 7.56594C22.8586 7.79891 22.9141 8.0707 22.8642 8.3425Z" fill="url(#paint12_linear_368_691)"/>
  <path d="M41.851 41.1133L41.4627 40.0261H29.8309L29.6201 41.1355L24.6279 45.5231L30.197 51.3085C30.197 51.3085 33.9633 48.1634 34.3017 47.8639C34.6733 47.531 35.1226 47.4922 35.3944 47.4867C35.6662 47.4922 36.1155 47.531 36.4871 47.8639C36.8255 48.1689 40.5918 51.3085 40.5918 51.3085L46.3717 45.5231L41.851 41.1133Z" fill="#7C7C7C"/>
  <path d="M22.7587 8.94145C22.5645 9.44066 21.5106 8.96363 21.1113 8.7584C21.0502 8.27027 20.9892 7.94855 20.9892 7.94855V7.9541C21.0059 8.23145 20.7285 8.43113 20.4678 8.33129C20.1738 8.2148 19.8355 8.12051 19.5914 8.1316C19.4971 8.13715 19.4195 8.15379 19.3473 8.17598C19.2808 7.95965 19.242 7.81543 19.242 7.81543V7.87645C19.2309 8.06504 19.1421 8.24254 18.9868 8.34793C18.3822 8.74176 18.2269 9.48504 18.9424 10.2782C18.6984 10.4446 18.3156 10.4336 18.0993 10.2117C17.822 9.93434 17.7055 9.05238 17.5446 8.39785C17.5945 8.86379 17.7332 9.69582 17.6666 10.0175C17.5834 10.4058 17.1952 10.6499 16.8069 10.5556C16.4685 10.4724 16.0691 10.2006 15.875 9.45176L15.9471 9.92324C15.9859 10.2006 16.1357 10.4446 16.3687 10.6111C16.5462 10.7442 16.7625 10.8163 16.9844 10.8163C17.0398 10.8163 17.0953 10.8107 17.1508 10.7996C17.2562 10.783 17.3505 10.7497 17.4392 10.7054C17.4448 10.6998 17.4559 10.6998 17.4614 10.6943C17.467 10.6887 17.478 10.6887 17.4836 10.6832C17.7166 10.5556 17.833 10.3781 17.8386 10.367C17.8663 10.4114 18.1548 10.6499 18.5042 10.6499C18.9868 10.6499 19.1754 10.4557 19.1754 10.4557C19.2198 10.4835 19.2641 10.5057 19.3085 10.5223C19.3418 10.5334 20.6398 10.9716 20.5898 11.4653C20.5843 11.5263 20.5898 11.5873 20.5954 11.6483V11.6761C20.612 11.8203 20.6453 11.9589 20.6952 12.0865L20.7008 12.081C20.8339 11.9756 21.1556 12.0643 21.1834 11.8757C21.2887 11.1602 21.261 10.306 21.1945 9.57379L22.5923 9.80676L22.7587 8.94145Z" fill="#875334"/>
  <path d="M23.025 10.7498C22.7532 9.2577 20.9505 8.63645 20.2738 8.39793C20.1906 8.3702 18.9536 8.07621 18.8038 9.1745C18.7373 9.65153 19.0978 10.1729 19.5582 10.3504C20.8174 10.833 20.8118 11.0993 20.8118 11.2768C20.8063 11.7372 21.0614 12.608 21.4608 12.8687C21.544 12.9242 21.6383 12.9575 21.727 12.9575C21.7825 12.9575 21.838 12.9464 21.8935 12.9242C22.6756 12.5969 23.1803 11.6207 23.025 10.7498Z" fill="url(#paint13_linear_368_691)"/>
  <path d="M48.735 9.51841C49.2342 9.22442 51.6027 8.85278 53.239 8.85278C54.1376 8.85278 54.8088 8.96927 54.8088 9.27435L54.8143 11.1769C54.8199 13.0906 53.5718 14.6548 51.5084 14.6604H51.5029C47.7643 14.6604 47.4647 10.2561 48.735 9.51841Z" fill="url(#paint14_radial_368_691)"/>
  <path d="M48.8679 11.5486C48.8901 11.6207 49.0843 11.6928 49.2951 11.7483H49.3006C49.5447 11.8093 49.8331 11.9313 50.3711 12.0811C51.12 12.2919 51.181 13.2958 51.181 13.2958C51.3197 12.7744 50.9647 11.8592 50.471 11.6484V11.6429C50.238 11.5319 49.9773 11.4709 49.7 11.4265C49.6556 11.421 49.5447 11.4155 49.406 11.421H49.4004C49.1508 11.4265 48.8402 11.4598 48.8679 11.5486Z" fill="#875334"/>
  <path d="M49.6501 8.875H55.2691L54.8254 11.6484H49.6501V8.875Z" fill="#646464"/>
  <path d="M48.2024 8.3425L48.3632 9.20227L48.3965 9.39086L48.4742 9.80688L48.5186 10.0509C48.5698 10.321 48.7255 10.5599 48.952 10.7157C49.1784 10.8715 49.4572 10.9316 49.7278 10.883C49.9829 10.8386 50.1993 10.7055 50.349 10.5058C50.5321 10.6722 50.7706 10.7665 51.0313 10.7665C51.1866 10.7665 51.6747 10.5502 51.7579 10.467C51.7801 10.4448 51.8023 10.4226 51.8189 10.3948C51.8411 10.4115 51.8633 10.4337 51.8855 10.4503C51.8966 10.4559 52.2128 10.6445 52.5345 10.6389C52.834 10.6334 53.128 10.4503 53.2223 10.3616C53.311 10.4891 53.4331 10.6001 53.5773 10.6777C53.6771 10.7388 53.7881 10.7776 53.9101 10.7942C53.9656 10.8053 54.021 10.8109 54.0765 10.8109C54.2984 10.8109 54.5147 10.7388 54.6922 10.6056C54.9252 10.4392 55.075 10.1952 55.1138 9.91781L55.1859 9.44633V9.44078L55.2802 8.83617C55.3246 8.55883 55.258 8.28148 55.0916 8.05406C54.9252 7.82109 54.6811 7.67133 54.4038 7.6325C54.3372 7.62141 54.2707 7.61586 54.2041 7.62141C54.1875 7.62141 54.1653 7.62141 54.1486 7.62695C53.9711 7.63805 53.7936 7.69906 53.6383 7.81C53.6161 7.82664 53.5995 7.84328 53.5828 7.85438C53.5496 7.7268 53.483 7.60477 53.3998 7.50492C53.3789 7.47296 53.3547 7.44322 53.3277 7.41617C53.2944 7.37734 53.2667 7.3607 53.2556 7.34961C53.25 7.34961 53.25 7.34406 53.25 7.34406C53.0836 7.19984 52.8673 7.11109 52.6288 7.1C52.5511 7.09445 52.4735 7.1 52.4014 7.11109C52.3459 7.12219 52.296 7.13883 52.2461 7.15547C52.1018 7.19984 51.9743 7.27195 51.8633 7.3718C51.83 7.32742 51.7912 7.28305 51.7524 7.24422C51.6969 7.18875 51.6359 7.13883 51.5749 7.1C51.5416 7.07781 51.5028 7.06117 51.4695 7.03898C51.3308 6.97242 51.1755 6.93914 51.0146 6.94469C50.8371 6.94469 50.6652 6.98906 50.5099 7.07781C50.4821 7.08891 50.46 7.10555 50.4378 7.12219C50.3823 7.16102 50.3324 7.20539 50.2825 7.25531C50.1937 7.34406 50.1216 7.44945 50.0717 7.56039C50.0051 7.46055 49.9164 7.36625 49.811 7.29414C49.7871 7.27612 49.761 7.26121 49.7333 7.24977C49.6224 7.18875 49.5059 7.14438 49.3839 7.12773C49.2674 7.11109 49.1509 7.11109 49.0344 7.13328C48.7571 7.1832 48.5241 7.33852 48.3632 7.56594C48.2079 7.79891 48.1525 8.0707 48.2024 8.3425Z" fill="url(#paint15_linear_368_691)"/>
  <path d="M48.3076 8.94145C48.5018 9.44066 49.5557 8.96363 49.955 8.7584C50.0161 8.27027 50.0771 7.94855 50.0771 7.94855V7.9541C50.0604 8.23145 50.3378 8.43113 50.5985 8.33129C50.8925 8.2148 51.2308 8.12051 51.4749 8.1316C51.5692 8.13715 51.6468 8.15379 51.7189 8.17598C51.7855 7.95965 51.8243 7.81543 51.8243 7.81543V7.87645C51.8354 8.06504 51.9242 8.24254 52.0795 8.34793C52.6841 8.74176 52.8394 9.48504 52.1239 10.2782C52.3679 10.4446 52.7507 10.4336 52.967 10.2117C53.2443 9.93434 53.3608 9.05238 53.5217 8.39785C53.4718 8.86379 53.3331 9.69582 53.3996 10.0175C53.4773 10.4058 53.8711 10.6499 54.2594 10.5556C54.5978 10.4724 54.9972 10.2006 55.1913 9.45176L55.1192 9.92324C55.0804 10.2006 54.9306 10.4446 54.6976 10.6111C54.5201 10.7442 54.3038 10.8163 54.0819 10.8163C54.0264 10.8163 53.971 10.8107 53.9155 10.7996C53.8101 10.783 53.7158 10.7497 53.6271 10.7054C53.6215 10.6998 53.6104 10.6998 53.6049 10.6943C53.5993 10.6887 53.5882 10.6887 53.5827 10.6832C53.4409 10.6075 53.3192 10.4991 53.2277 10.367C53.2 10.4114 52.9115 10.6499 52.5621 10.6499C52.0795 10.6499 51.8909 10.4557 51.8909 10.4557C51.8465 10.4835 51.8021 10.5057 51.7578 10.5223C51.7189 10.5334 50.4321 10.9716 50.4764 11.4653C50.482 11.5263 50.4764 11.5873 50.4709 11.6483V11.6761C50.4543 11.8203 50.421 11.9589 50.3711 12.0865L50.3655 12.081C50.2324 11.9756 49.9107 12.0643 49.8829 11.8757C49.7775 11.1602 49.8053 10.306 49.8718 9.57379L48.474 9.80676L48.3076 8.94145Z" fill="#875334"/>
  <path d="M48.0415 10.7498C48.3133 9.2577 50.116 8.63645 50.7927 8.39793C50.8759 8.3702 52.1129 8.07621 52.2627 9.1745C52.3292 9.65153 51.9687 10.1729 51.5083 10.3504C50.2491 10.833 50.2547 11.0993 50.2547 11.2768C50.2602 11.7372 50.0051 12.608 49.6057 12.8687C49.5225 12.9242 49.4282 12.9575 49.3395 12.9575C49.284 12.9575 49.2285 12.9464 49.1731 12.9242C48.3909 12.5969 47.8862 11.6207 48.0415 10.7498Z" fill="url(#paint16_linear_368_691)"/>
  <defs>
    <linearGradient id="paint0_linear_368_691" x1="42.7208" y1="40.7024" x2="42.7208" y2="61.9619" gradientUnits="userSpaceOnUse">
      <stop stop-color="#8D5738"/>
      <stop offset="0.5" stop-color="#A56C43"/>
    </linearGradient>
    <linearGradient id="paint1_linear_368_691" x1="28.2791" y1="40.7024" x2="28.2791" y2="61.9619" gradientUnits="userSpaceOnUse">
      <stop stop-color="#8D5738"/>
      <stop offset="0.5" stop-color="#A56C43"/>
    </linearGradient>
    <linearGradient id="paint2_linear_368_691" x1="44.7472" y1="24.2155" x2="51.8677" y2="12.5543" gradientUnits="userSpaceOnUse">
      <stop stop-color="#8D5738"/>
      <stop offset="0.5" stop-color="#A56C43"/>
    </linearGradient>
    <linearGradient id="paint3_linear_368_691" x1="26.1798" y1="24.1162" x2="19.0077" y2="12.6098" gradientUnits="userSpaceOnUse">
      <stop stop-color="#8D5738"/>
      <stop offset="0.5" stop-color="#A56C43"/>
    </linearGradient>
    <linearGradient id="paint4_linear_368_691" x1="35.5002" y1="25.5838" x2="35.5002" y2="39.7266" gradientUnits="userSpaceOnUse">
      <stop stop-color="#00BFA5"/>
      <stop offset="0.705" stop-color="#00B29A"/>
      <stop offset="1" stop-color="#00AB94"/>
    </linearGradient>
    <radialGradient id="paint5_radial_368_691" cx="0" cy="0" r="1" gradientUnits="userSpaceOnUse" gradientTransform="translate(35.5 17.2816) scale(6.43271 7.25738)">
      <stop offset="0.794" stop-color="#554138" stop-opacity="0"/>
      <stop offset="1" stop-color="#554138"/>
    </radialGradient>
    <radialGradient id="paint6_radial_368_691" cx="0" cy="0" r="1" gradientUnits="userSpaceOnUse" gradientTransform="translate(19.6305 11.7582) scale(3.14896)">
      <stop stop-color="#8D5738"/>
      <stop offset="0.5" stop-color="#A56C43"/>
    </radialGradient>
    <linearGradient id="paint7_linear_368_691" x1="35.5" y1="8.53054" x2="35.5" y2="11.8908" gradientUnits="userSpaceOnUse">
      <stop stop-color="#BDBDBD"/>
      <stop offset="1" stop-color="#757575"/>
    </linearGradient>
    <radialGradient id="paint8_radial_368_691" cx="0" cy="0" r="1" gradientUnits="userSpaceOnUse" gradientTransform="translate(11.5749 4.81533) rotate(90) scale(12.1766 6.8473)">
      <stop offset="0.396" stop-color="#9E9E9E"/>
      <stop offset="0.79" stop-color="#646464"/>
    </radialGradient>
    <radialGradient id="paint9_radial_368_691" cx="0" cy="0" r="1" gradientUnits="userSpaceOnUse" gradientTransform="translate(59.4264 4.86333) rotate(90) scale(12.1766 6.8473)">
      <stop offset="0.396" stop-color="#9E9E9E"/>
      <stop offset="0.79" stop-color="#646464"/>
    </radialGradient>
    <radialGradient id="paint10_radial_368_691" cx="0" cy="0" r="1" gradientUnits="userSpaceOnUse" gradientTransform="translate(5.67006 7.1294) scale(2.62028 4.53228)">
      <stop offset="0.441" stop-color="#9E9E9E"/>
      <stop offset="0.985" stop-color="#646464"/>
    </radialGradient>
    <radialGradient id="paint11_radial_368_691" cx="0" cy="0" r="1" gradientUnits="userSpaceOnUse" gradientTransform="translate(65.2826 7.1294) rotate(180) scale(2.62028 4.53228)">
      <stop offset="0.441" stop-color="#9E9E9E"/>
      <stop offset="0.985" stop-color="#646464"/>
    </radialGradient>
    <linearGradient id="paint12_linear_368_691" x1="19.302" y1="9.22224" x2="19.3602" y2="7.384" gradientUnits="userSpaceOnUse">
      <stop stop-color="#8D5738"/>
      <stop offset="0.5" stop-color="#A56C43"/>
    </linearGradient>
    <linearGradient id="paint13_linear_368_691" x1="19.4184" y1="11.2779" x2="22.3577" y2="9.80629" gradientUnits="userSpaceOnUse">
      <stop stop-color="#8D5738"/>
      <stop offset="0.469" stop-color="#A56C43"/>
    </linearGradient>
    <radialGradient id="paint14_radial_368_691" cx="0" cy="0" r="1" gradientUnits="userSpaceOnUse" gradientTransform="translate(51.4363 11.7582) rotate(180) scale(3.14896)">
      <stop stop-color="#8D5738"/>
      <stop offset="0.5" stop-color="#A56C43"/>
    </radialGradient>
    <linearGradient id="paint15_linear_368_691" x1="51.7646" y1="9.22224" x2="51.7063" y2="7.384" gradientUnits="userSpaceOnUse">
      <stop stop-color="#8D5738"/>
      <stop offset="0.5" stop-color="#A56C43"/>
    </linearGradient>
    <linearGradient id="paint16_linear_368_691" x1="51.6481" y1="11.2779" x2="48.7088" y2="9.80628" gradientUnits="userSpaceOnUse">
      <stop stop-color="#8D5738"/>
      <stop offset="0.469" stop-color="#A56C43"/>
    </linearGradient>
  </defs>
</svg>