<svg width="21px" height="21px" viewBox="0 0 128 128" xmlns="http://www.w3.org/2000/svg" xmlns:xlink="http://www.w3.org/1999/xlink" aria-hidden="true" role="img" class="iconify iconify--noto" preserveAspectRatio="xMidYMid meet" fill="#000000"><g id="SVGRepo_bgCarrier" stroke-width="0"></g><g id="SVGRepo_tracerCarrier" stroke-linecap="round" stroke-linejoin="round"></g><g id="SVGRepo_iconCarrier"> <path d="M106.63 124H30.35c-1.6 0-4.55 0-8.36-3.49c-3.07-2.81-6.59-5.44-6.52-8.7l82.28-97.37c4.48 0 6.51 1.31 9.35 3.01c5.37 3.22 5.55 4.85 5.55 6.67v93.87a6.024 6.024 0 0 1-6.02 6.01z" fill="#b9e4ea"> </path> <path d="M69.17 87.62v29h28.85a5.74 5.74 0 0 0 5.74-5.74V87.62H69.17z" fill="#82aec0"> </path> <path d="M75.11 116.62c-5.21 0 4.25-21.3 4.25-21.3s24.4-22.4 24.4-6.85s-23.45 28.15-28.65 28.15z" fill="#b9e4ea"> </path> <path d="M85.12 96.44s18.64-1.19 18.64-8.55V20.45c0-3.32-2.35-6.01-6.01-6.01H21.36c-3.95 0-6.01 2.69-6.01 6.01v90.16c0 3.32 2.69 6.01 6.01 6.01h52.82c11.53-2.72 10.94-20.18 10.94-20.18z" fill="#f5f5f5"> </path> <ellipse cx="28.13" cy="20.52" rx="3.11" ry="3.47" fill="#2f7889"> </ellipse> <path d="M29.57 17.67a7.58 7.58 0 0 1-.72-3.24c0-2.81 1.46-5.18 3.19-5.18s3.2 2.37 3.2 5.18h4.7C39.94 8.68 36.4 4 32.05 4s-7.9 4.68-7.9 10.43c0 2.05.45 3.96 1.22 5.57c.7 1.46 2.21 2.11 3.54 1.4c1.13-.59 1.27-2.47.66-3.73z" fill="#94d1e0"> </path> <path d="M36.59 5.91c.02.06.6 1.56-.22 3c-.83 1.47-2.55 1.24-2.55 1.24c.85.94 1.42 2.52 1.42 4.28h4.72c0-3.52-1.35-6.63-3.37-8.52z" fill="#2f7889"> </path> <ellipse cx="49.12" cy="20.52" rx="3.11" ry="3.47" fill="#2f7889"> </ellipse> <path d="M50.56 17.67a7.58 7.58 0 0 1-.72-3.24c0-2.81 1.46-5.18 3.19-5.18s3.2 2.37 3.2 5.18h4.7C60.93 8.68 57.39 4 53.03 4c-4.35 0-7.9 4.68-7.9 10.43c0 2.05.45 3.96 1.22 5.57c.7 1.46 2.21 2.11 3.54 1.4c1.14-.59 1.28-2.47.67-3.73z" fill="#94d1e0"> </path> <path d="M57.58 5.91c.02.06.6 1.56-.22 3c-.83 1.47-2.55 1.24-2.55 1.24c.85.94 1.42 2.52 1.42 4.28h4.74c0-3.52-1.37-6.63-3.39-8.52z" fill="#2f7889"> </path> <g> <ellipse cx="70.11" cy="20.52" rx="3.11" ry="3.47" fill="#2f7889"> </ellipse> <path d="M71.55 17.67a7.58 7.58 0 0 1-.72-3.24c0-2.81 1.46-5.18 3.19-5.18s3.2 2.37 3.2 5.18h4.7C81.92 8.68 78.38 4 74.02 4c-4.35 0-7.9 4.68-7.9 10.43c0 2.05.45 3.96 1.22 5.57c.7 1.46 2.21 2.11 3.54 1.4c1.13-.59 1.28-2.47.67-3.73z" fill="#94d1e0"> </path> <path d="M78.57 5.91c.02.06.6 1.56-.22 3c-.83 1.47-2.55 1.24-2.55 1.24c.85.94 1.42 2.52 1.42 4.28h4.75c0-3.52-1.38-6.63-3.4-8.52z" fill="#2f7889"> </path> </g> <g> <ellipse cx="91.08" cy="20.52" rx="3.11" ry="3.47" fill="#2f7889"> </ellipse> <path d="M92.53 17.67a7.58 7.58 0 0 1-.72-3.24c0-2.81 1.46-5.18 3.19-5.18s3.2 2.37 3.2 5.18h4.7C102.9 8.68 99.35 4 95 4c-4.35 0-7.9 4.68-7.9 10.43c0 2.05.45 3.96 1.22 5.57c.7 1.46 2.21 2.11 3.54 1.4c1.13-.59 1.27-2.47.67-3.73z" fill="#94d1e0"> </path> <path d="M99.54 5.91c.02.06.6 1.56-.22 3c-.83 1.47-2.55 1.24-2.55 1.24c.85.94 1.42 2.52 1.42 4.28l1.61.11s1.6.13 3.16.73c0 0 .54-6.05-3.42-9.36z" fill="#2f7889"> </path> </g> <g opacity=".9"> <path d="M84.34 104.03H15.47v-2.01h69.25c-.09 1.09-.38 2.01-.38 2.01z" fill="#4fc3f7"> </path> <path d="M101.02 92.22H15.47v-2.01h87.67c-.89 1.38-2.12 2.01-2.12 2.01z" fill="#4fc3f7"> </path> <path fill="none" stroke="#4fc3f7" stroke-width="2.006" stroke-miterlimit="10" d="M103.76 79.41H15.47"> </path> <path fill="none" stroke="#4fc3f7" stroke-width="2.006" stroke-miterlimit="10" d="M103.76 67.59H15.47"> </path> <path fill="none" stroke="#4fc3f7" stroke-width="2.006" stroke-miterlimit="10" d="M103.76 55.78H15.47"> </path> <path fill="none" stroke="#4fc3f7" stroke-width="2.006" stroke-miterlimit="10" d="M103.76 43.97H15.47"> </path> <path fill="none" stroke="#4fc3f7" stroke-width="2.006" stroke-miterlimit="10" d="M103.76 32.16H15.47"> </path> </g> <g> <path fill="#2f7889" d="M112.61 38.13l-8.85-4.97v-2.02l8.89 4.99z" opacity=".75"> </path> <path fill="#2f7889" d="M112.61 49.94l-8.85-4.96v-2.02l8.89 4.99z" opacity=".75"> </path> <path fill="#2f7889" d="M112.61 61.76l-8.85-4.97v-2.02l8.89 4.99z" opacity=".75"> </path> <path fill="#2f7889" d="M112.61 73.57l-8.85-4.97v-2.02l8.89 5z" opacity=".75"> </path> <path fill="#2f7889" d="M112.61 85.39l-8.85-4.97V78.4l8.89 4.99z" opacity=".75"> </path> <path fill="#2f7889" d="M112.61 97.2l-8.85-4.97v-2.02l8.89 4.99z" opacity=".75"> </path> <path fill="#2f7889" d="M112.61 109.01l-8.85-4.97v-2.02l8.89 5z" opacity=".75"> </path> </g> </g></svg>