<svg xmlns="http://www.w3.org/2000/svg" width="30" height="30" viewBox="0 0 54 65" fill="none">
  <path d="M50.5286 64.6084H11.4269C10.4975 64.6084 10.7214 63.8526 10.7214 62.9232V4.34904C10.7214 3.41965 11.4773 2.66382 12.4067 2.66382H51.2396C52.7625 2.66382 53.9998 3.90114 53.9998 5.42401V61.2772C53.9998 63.4383 52.9752 64.6084 50.5286 64.6084Z" fill="#C62828"/>
  <path d="M1.54492 60.9468C1.54492 62.033 3.26374 62.9456 4.3499 62.9456L49.3583 62.9176C51.0267 62.9176 51.9001 62.033 51.9001 60.9468L51.7602 49.0103H1.54492V60.9468Z" fill="#94C6D6"/>
  <path d="M47.9813 55.7622C47.9813 55.7622 46.7888 59.0374 47.9981 60.6779C49.4034 62.5814 51.8557 62.1223 51.8557 61.2321V5.68689C51.8557 5.31737 51.5142 5.04863 51.1558 5.12701C50.3776 5.29497 48.9779 5.30057 47.1191 4.06885L47.9813 55.7622Z" fill="#F5F5F5"/>
  <path d="M43.8887 58.545H4.40625V0.0939941H44.8573C46.1282 0.0939941 47.024 0.435518 47.4439 1.00099C47.9926 1.73443 48.2837 2.84858 48.2837 4.06911V54.15C48.2837 55.3156 47.8206 56.4335 46.9964 57.2577C46.1722 58.082 45.0543 58.545 43.8887 58.545Z" fill="#C62828"/>
  <path d="M42.685 56.8262H5.47005C3.92479 56.8262 2.67627 55.5721 2.67627 54.0324V2.89339C2.67627 1.34813 3.93039 0.0996094 5.47005 0.0996094H42.685C44.8237 0.0996094 46.5593 1.32014 46.5593 3.97395V52.9575C46.5537 55.0906 44.8237 56.8262 42.685 56.8262Z" fill="#F44336"/>
  <path d="M10.4473 57.9291L10.4193 0.0995334H4.14868C4.14868 0.0995334 2.85537 -0.124417 1.99316 0.0995334C0.431104 0.508243 0 1.64479 0 3.49798V56.3558C0 60.107 0.229548 61.7306 1.3661 62.9176C1.29891 62.0554 1.85319 59.0936 2.30669 58.2818C2.7098 57.5652 10.4473 57.9291 10.4473 57.9291Z" fill="#616161"/>
  <path d="M4.14893 0.0939941V58.545" stroke="#424242" stroke-miterlimit="10"/>
  <path d="M10.4193 57.6995L4.09266 57.8226C1.98193 57.8226 1.25969 60.0845 1.6348 61.5794C2.1051 63.4662 4.05347 63.7741 4.53496 63.7741H11.6174" stroke="#424242" stroke-width="1.5" stroke-miterlimit="10"/>
</svg>