<svg height="21px" width="21px" version="1.1" id="Layer_1" xmlns="http://www.w3.org/2000/svg" xmlns:xlink="http://www.w3.org/1999/xlink" viewBox="0 0 511.999 511.999" xml:space="preserve" fill="#000000"><g id="SVGRepo_bgCarrier" stroke-width="0"></g><g id="SVGRepo_tracerCarrier" stroke-linecap="round" stroke-linejoin="round"></g><g id="SVGRepo_iconCarrier"> <path style="fill:#D8145D;" d="M298.393,85.017c-2.085-8.827-8.591-15.947-17.195-18.814L170.158,29.187 c-9.406-3.135-19.775-0.687-26.786,6.323L7.665,171.224c-10.219,10.219-10.217,26.791,0,37.01l74.022,74.027 c4.908,4.908,11.566,7.665,18.505,7.665c6.942,0.003,13.599-2.755,18.507-7.665l172.726-172.724 C297.839,103.122,300.474,93.845,298.393,85.017z"></path> <path style="fill:#A90140;" d="M482.807,341.841l-37.012-111.038c-2.872-8.609-9.992-15.113-18.816-17.195 c-8.829-2.087-18.106,0.55-24.521,6.963L229.739,393.296c-10.221,10.219-10.221,26.791,0,37.012l74.022,74.027 c4.906,4.908,11.566,7.663,18.505,7.663c6.944,0,13.601-2.757,18.507-7.663l135.711-135.711 C483.496,361.616,485.942,351.247,482.807,341.841z"></path> <path style="fill:#D6E5F6;" d="M476.484,220.575c22.152-22.152,33.706-61.233,35.327-119.475 c1.099-39.584-3.006-73.525-3.179-74.949C507.166,14.226,497.77,4.83,485.846,3.368c-1.424-0.176-35.368-4.282-74.95-3.181 c-58.241,1.619-97.32,13.175-119.47,35.323L81.689,245.248c-4.91,4.908-7.667,11.564-7.667,18.509 c0,6.939,2.757,13.597,7.665,18.503l148.051,148.048c10.219,10.221,26.791,10.221,37.012,0L476.484,220.575z"></path> <path style="fill:#A4C6EC;" d="M476.484,220.575c22.152-22.152,33.706-61.233,35.327-119.475 c1.099-39.584-3.006-73.525-3.179-74.949c-0.733-5.964-3.449-11.294-7.471-15.314L155.712,356.286l74.027,74.024 c10.219,10.221,26.791,10.221,37.012,0L476.484,220.575z"></path> <path style="fill:#F2D23D;" d="M118.698,467.324L44.674,393.3c-10.221-10.221-10.219-26.793,0.002-37.014 c10.219-10.219,26.789-10.219,37.012,0l74.024,74.024c10.219,10.221,10.219,26.791,0,37.012 C145.491,477.543,128.921,477.543,118.698,467.324z"></path> <path style="fill:#D8145D;" d="M365.448,183.563c10.221-10.221,10.221-26.793,0-37.012c-10.221-10.221-26.791-10.223-37.012,0 L155.715,319.274c-10.219,10.219-10.219,26.791,0,37.012c10.219,10.219,26.791,10.219,37.012,0L365.448,183.563z"></path> </g></svg>