<svg height="21px" width="21px" version="1.1" id="Layer_1" xmlns="http://www.w3.org/2000/svg" xmlns:xlink="http://www.w3.org/1999/xlink" viewBox="0 0 512 512" xml:space="preserve" fill="#000000"><g id="SVGRepo_bgCarrier" stroke-width="0"></g><g id="SVGRepo_tracerCarrier" stroke-linecap="round" stroke-linejoin="round"></g><g id="SVGRepo_iconCarrier"> <path style="fill:#ACABB1;" d="M0.344,376.135c-1.297,7.461,1.119,15.089,6.473,20.443c4.402,4.402,10.336,6.816,16.454,6.816 c1.325,0,2.659-0.113,3.987-0.344l94-16.342c0.953,0.416,1.921,0.794,2.88,1.196c-3.233-7.73-5.995-15.703-8.259-23.882 c-2.054-7.429-3.703-15.025-4.9-22.77c-1.559-10.09-2.374-20.427-2.374-30.948c0-111.217,90.48-201.697,201.697-201.697 c5.378,0,10.704,0.217,15.979,0.631c10.533,0.829,20.838,2.479,30.86,4.87c10.6,2.531,20.876,5.896,30.757,10.031 C356.782,49.462,283.31,0,201.697,0C90.481,0,0,90.481,0,201.697c0,28.028,5.609,55.051,16.683,80.445L0.344,376.135z"></path> <path style="fill:#E0E0E2;" d="M495.315,390.749C506.391,365.359,512,338.334,512,310.303c0-83.734-51.293-155.704-124.101-186.165 c-9.882-4.135-20.157-7.5-30.757-10.031c-10.021-2.391-20.326-4.04-30.86-4.87c-5.274-0.414-10.602-0.631-15.979-0.631 c-111.217,0-201.697,90.48-201.697,201.697c0,10.521,0.813,20.857,2.374,30.948c1.196,7.744,2.845,15.341,4.9,22.77 c2.264,8.178,5.025,16.151,8.259,23.882C154.602,460.712,226.571,512,310.303,512c28.025,0,55.049-5.609,80.446-16.685 l93.992,16.341c1.328,0.23,2.662,0.344,3.987,0.344c6.116,0,12.054-2.416,16.454-6.817c5.356-5.356,7.77-12.982,6.473-20.443 L495.315,390.749z"></path> <path style="fill:#C6C5CA;" d="M108.606,310.303c0,10.521,0.813,20.857,2.374,30.948c1.196,7.744,2.845,15.341,4.9,22.77 c2.264,8.178,5.025,16.151,8.259,23.882C154.602,460.712,226.571,512,310.303,512V108.606 C199.087,108.606,108.606,199.087,108.606,310.303z"></path> </g></svg>